{"title":"The.Hunger.Games.Mockingjay.Part.1.2014.1080p.WEB-DL.DD5.1.H264-","uid":11706356,"size":4357714491,"categoryP":"video","categoryS":"movies","magnet":"?xt=urn:btih:bcbd5421238584c8130ba443d61bda32e03fc575&amp;dn=The.Hunger.Games.Mockingjay.Part.1.2014.1080p.WEB-DL.DD5.1.H264-&amp;tr=udp%3A%2F%2Ftracker.openbittorrent.com%3A80&amp;tr=udp%3A%2F%2Fopen.demonii.com%3A1337&amp;tr=udp%3A%2F%2Ftracker.coppersurfer.tk%3A6969&amp;tr=udp%3A%2F%2Fexodus.desync.com%3A6969","seeders":319,"leechers":19,"uploader":"makintos13","files":4,"time":1424142069,"description":"The.Hunger.Games.Mockingjay.Part.1.2014.1080p.WEB-DL.DD5.1.H264-\n\nSCREENS:\n &lt;a href=&quot;\nhttp://imgsleek.com/img-54e2a0bb4f38b.html&quot; rel=&quot;nofollow&quot; target=&quot;_NEW&quot;&gt;\nhttp://imgsleek.com/img-54e2a0bb4f38b.html&lt;/a&gt;\n &lt;a href=&quot;\nhttp://imgsleek.com/img-54e2a0bb53533.html&quot; rel=&quot;nofollow&quot; target=&quot;_NEW&quot;&gt;\nhttp://imgsleek.com/img-54e2a0bb53533.html&lt;/a&gt;\n &lt;a href=&quot;\nhttp://imgsleek.com/img-54e2a0bb57063.html&quot; rel=&quot;nofollow&quot; target=&quot;_NEW&quot;&gt;\nhttp://imgsleek.com/img-54e2a0bb57063.html&lt;/a&gt;\n &lt;a href=&quot;\nhttp://imgsleek.com/img-54e2a0bb5aaf4.html&quot; rel=&quot;nofollow&quot; target=&quot;_NEW&quot;&gt;\nhttp://imgsleek.com/img-54e2a0bb5aaf4.html&lt;/a&gt;\n\n\n[mediainfo]\nVideo\nID : 1\nFormat : AVC\nFormat/Info : Advanced Video Codec\nFormat profile : &lt;a class=&quot;__cf_email__&quot; href=&quot;/cdn-cgi/l/email-protection&quot; data-cfemail=&quot;ca82a3ada28a86fee4fa&quot;&gt;[email&amp;#160;protected]&lt;/a&gt;&lt;script cf-hash='f9e31' type=&quot;text/javascript&quot;&gt;\n/* &lt;![CDATA[ */!function(){try{var t=&quot;currentScript&quot;in document?document.currentScript:function(){for(var t=document.getElementsByTagName(&quot;script&quot;),e=t.length;e--;)if(t[e].getAttribute(&quot;cf-hash&quot;))return t[e]}();if(t&amp;&amp;t.previousSibling){var e,r,n,i,c=t.previousSibling,a=c.getAttribute(&quot;data-cfemail&quot;);if(a){for(e=&quot;&quot;,r=parseInt(a.substr(0,2),16),n=2;a.length-n;n+=2)i=parseInt(a.substr(n,2),16)^r,e+=String.fromCharCode(i);e=document.createTextNode(e),c.parentNode.replaceChild(e,c)}}}catch(u){}}();/* ]]&gt; */&lt;/script&gt;\nFormat settings, CABAC : Yes\nFormat settings, ReFrames : 5 frames\nCodec ID : V_MPEG4/ISO/AVC\nDuration : 1h 57mn\nBit rate : 4 449 Kbps\nWidth : 1 912 pixels\nHeight : 792 pixels\nDisplay aspect ratio : 2.40:1\nFrame rate mode : Constant\nFrame rate : 25.000 fps\nColor space : YUV\nChroma subsampling : 4:2:0\nBit depth : 8 bits\nScan type : Progressive\nBits/(Pixel*Frame) : 0.118\nStream size : 3.66 GiB (90%)\nTitle : The.Hunger.Games.Mockingjay.Part.1.2014.1080p.WEB-DL.DD5.1.H264-RARBG\nLanguage : English\nDefault : Yes\nForced : No\nColor primaries : BT.709\nTransfer characteristics : BT.709\nMatrix coefficients : BT.709\nColor range : Limited\n\nAudio\nID : 2\nFormat : AC-3\nFormat/Info : Audio Coding 3\nMode extension : CM (complete main)\nFormat settings, Endianness : Big\nCodec ID : A_AC3\nDuration : 1h 57mn\nBit rate mode : Constant\nBit rate : 384 Kbps\nChannel(s) : 6 channels\nChannel positions : Front: L C R, Side: L R, LFE\nSampling rate : 48.0 KHz\nBit depth : 16 bits\nCompression mode : Lossy\nStream size : 324 MiB (8%)\nTitle : The.Hunger.Games.Mockingjay.Part.1.2014.1080p.WEB-DL.DD5.1.H264-RARBG\nLanguage : English\nDefault : Yes\nForced : No\n\nMenu\n00:00:00.000 : en:1\n00:15:00.000 : en:2\n00:30:00.000 : en:3\n00:45:00.000 : en:4\n01:00:00.000 : en:5\n01:15:00.000 : en:6\n01:30:00.000 : en:7\n01:45:00.000 : en:8\n\n\n\n[/mediainfo]","torrent":{"xt":"urn:btih:bcbd5421238584c8130ba443d61bda32e03fc575","amp;dn":"The.Hunger.Games.Mockingjay.Part.1.2014.1080p.WEB-DL.DD5.1.H264-","amp;tr":["udp%3A%2F%2Ftracker.openbittorrent.com%3A80","udp%3A%2F%2Fopen.demonii.com%3A1337","udp%3A%2F%2Ftracker.coppersurfer.tk%3A6969","udp%3A%2F%2Fexodus.desync.com%3A6969"],"infoHash":"bcbd5421238584c8130ba443d61bda32e03fc575","infoHashBuffer":{"type":"Buffer","data":[188,189,84,33,35,133,132,200,19,11,164,67,214,27,218,50,224,63,197,117]},"announce":[],"urlList":[]}}